<svg xmlns="http://www.w3.org/2000/svg" viewBox="0 0 512 512" width="512" height="512"><defs><linearGradient id="g" x1="0" y1="0" x2="1" y2="1"><stop offset="0" stop-color="#34A853"/><stop offset="1" stop-color="#1E7E45"/></linearGradient></defs><rect width="512" height="512" rx="112" fill="url(#g)"/><path d="M166 232 C166 64 346 64 346 232" stroke="#ffffff" stroke-width="22" fill="none" opacity="0.92" stroke-linecap="round"/><g fill="#ffffff" stroke="#1E7E45" stroke-opacity="0.32" stroke-width="3">
<rect x="159" y="184" width="38" height="58" rx="12"/>
<rect x="165" y="170" width="26" height="16" rx="5"/>
<rect x="205" y="162" width="50" height="82" rx="8"/>
<circle cx="282" cy="200" r="25"/>
<rect x="313" y="176" width="38" height="68" rx="9"/>
</g>
<rect x="205" y="190" width="50" height="6" fill="#1E7E45" opacity="0.3" stroke="none"/>
<path d="M282 175 q12 -16 24 -10" stroke="#ffffff" stroke-width="6" fill="none" stroke-linecap="round"/>
<rect x="313" y="200" width="38" height="5" fill="#1E7E45" opacity="0.3" stroke="none"/><path d="M150 230 L362 230 L340 404 Q256 426 172 404 Z" fill="#ffffff"/>
<g stroke="#1E7E45" stroke-width="5" opacity="0.20" fill="none" stroke-linecap="round">
<path d="M170 272 H344"/><path d="M178 308 H336"/><path d="M186 344 H328"/></g>
<path d="M150 230 L362 230" stroke="#1E7E45" stroke-width="7" opacity="0.32" stroke-linecap="round"/></svg>
